# xmcd CD database file
#
# Track frame offsets:
#	150
#	13980
#	24193
#	36320
#	46878
#	58048
#	68480
#	78568
#	92175
#	103038
#	113405
#	124744
#	135028
#	145943
#	156944
#	171411
#	182151
#	190670
#	203613
#	214635
#	224030
#	238775
#	252434
#	264116
#	279041
#
# Disc length: 3871 seconds
#
# Revision: 0
# Processed by: cddbd v1.5.2PL0 Copyright (c) Steve Scherf et al.
# Submitted via: CDex 1.51
#
DISCID=5c0f1d19
DTITLE=A - Z Sampler - New Orleans Blues CD 3
DYEAR=2011
DGENRE=Blues
TTITLE0=Guitar Slim - The Things That I Used To Do
TTITLE1=Herbert (Woo Woo) Moore - Something's Wrong
TTITLE2=Fats Matthews - Goin' Down
TTITLE3=T-Bone Walker - Pony Tail
TTITLE4=Sugar Boy and His Cane Cutters - Jock-A-Mo
TTITLE5=Willie Johnson - Say Baby
TTITLE6=Papa Lightfoot - Wine, Women and Whiskey
TTITLE7=Leonard Lee - When The Sun Goes Down
TTITLE8=Blanche Thomas - You Ain't So Much A Much
TTITLE9=Earl King - Eating And Sleeping
TTITLE10=Pee Wee Crayton - Runnin' Wild
TTITLE11=Billy Tate - Single Life
TTITLE12=Roosevelt Sykes - Sweet Old Chicago
TTITLE13=Boo Breeding - Country Woman
TTITLE14=Elmore James - Dust My Blues
TTITLE15=Little Richard - Directly From My Heart
TTITLE16=Big Boy Myles and The Shaw-Wees - Who's Been Foolin' You 
TTITLE17=Bobby Charles - See You Later Alligator
TTITLE18=Shirley and Lee - Let The Good Times Roll
TTITLE19=Roy Brown - Let The Four Winds Blow
TTITLE20=Jesse Allen - Goodbye Blues
TTITLE21=Eddie Lang - Troubles, Troubles
TTITLE22=Ernie K-Doe - There's A Will There's A Way
TTITLE23=Ford Eaglin - That Certain Door
TTITLE24=Sammy Myers - You Don't Have To Go
EXTD=YEAR: 2011
EXTT0=
EXTT1=
EXTT2=
EXTT3=
EXTT4=
EXTT5=
EXTT6=
EXTT7=
EXTT8=
EXTT9=
EXTT10=
EXTT11=
EXTT12=
EXTT13=
EXTT14=
EXTT15=
EXTT16=
EXTT17=
EXTT18=
EXTT19=
EXTT20=
EXTT21=
EXTT22=
EXTT23=
EXTT24=
PLAYORDER=
